<?xml version="1.0" encoding="UTF-8"?>
<svg xmlns="http://www.w3.org/2000/svg" viewBox="0 0 24 24" width="24px" height="24px">
<g id="surface9221200">
<path style=" stroke:none;fill-rule:nonzero;fill:rgb(93.725491%,28.627452%,25.490198%);fill-opacity:1;" d="M 6 1 L 6 3 L 5 3 C 3.898438 3 3 3.898438 3 5 L 3 19 C 3 20.101562 3.898438 21 5 21 L 19 21 C 20.101562 21 21 20.101562 21 19 L 21 5 C 21 3.898438 20.101562 3 19 3 L 18 3 L 18 1 L 16 1 L 16 3 L 8 3 L 8 1 Z M 5 8 L 19 8 L 19 19 L 5 19 Z M 5 8 "/>
</g>
</svg>
