<?xml version="1.0" encoding="UTF-8"?>
<svg width="20px" height="20px" viewBox="0 0 20 20" version="1.1" xmlns="http://www.w3.org/2000/svg" xmlns:xlink="http://www.w3.org/1999/xlink">
    <!-- Generator: Sketch 57.1 (83088) - https://sketch.com -->
    <g id="Page-1" stroke="none" stroke-width="1" fill="none" fill-rule="evenodd">
        <g id="user" fill="#C1C1C1" fill-rule="nonzero">
            <path d="M10,0 C4.477,0 0,4.477 0,10 C0,15.523 4.477,20 10,20 C15.523,20 20,15.523 20,10 C20,4.477 15.523,0 10,0 Z M10,2.75 C11.795,2.75 13.25,4.205 13.25,6 C13.25,7.795 11.795,9.25 10,9.25 C8.205,9.25 6.75,7.795 6.75,6 C6.75,4.205 8.205,2.75 10,2.75 Z M10,18 C7.23,18 4.79,16.592 3.354,14.453 C4.475,12.823 8.046,12 10,12 C11.954,12 15.525,12.823 16.646,14.453 C15.21,16.592 12.77,18 10,18 Z" id="Shape"></path>
        </g>
    </g>
</svg>